<?xml version="1.0" encoding="UTF-8"?>
<!DOCTYPE svg PUBLIC "-//W3C//DTD SVG 1.1//EN" "http://www.w3.org/Graphics/SVG/1.1/DTD/svg11.dtd">
<svg xmlns="http://www.w3.org/2000/svg" version="1.1" width="512px" height="512px" style="shape-rendering:geometricPrecision; text-rendering:geometricPrecision; image-rendering:optimizeQuality; fill-rule:evenodd; clip-rule:evenodd" xmlns:xlink="http://www.w3.org/1999/xlink">
<g><path style="opacity:0.998" fill="#e9e9e9" d="M 511.5,78.5 C 511.5,135.833 511.5,193.167 511.5,250.5C 490.036,230.872 468.703,211.039 447.5,191C 422.841,168.419 394.507,162.086 362.5,172C 356.843,174.493 351.51,177.493 346.5,181C 318.833,206.667 291.167,232.333 263.5,258C 260.271,260.741 256.938,263.241 253.5,265.5C 246.031,258.2 238.364,251.033 230.5,244C 202.736,223.89 173.402,221.223 142.5,236C 137.986,239.091 133.653,242.425 129.5,246C 86.5975,286.74 43.2642,326.906 -0.5,366.5C -0.5,269.833 -0.5,173.167 -0.5,76.5C 8.10243,36.7319 32.4358,12.8986 72.5,5C 194.5,4.33333 316.5,4.33333 438.5,5C 468.577,10.082 490.41,26.2487 504,53.5C 507.454,61.6832 509.954,70.0165 511.5,78.5 Z"/></g>
<g><path style="opacity:1" fill="#bbbcbc" d="M 187.5,48.5 C 191.355,47.8454 194.188,49.1788 196,52.5C 196.667,59.1667 196.667,65.8333 196,72.5C 195.21,78.1237 192.043,79.9571 186.5,78C 185.874,77.2496 185.374,76.4162 185,75.5C 184.333,67.5 184.333,59.5 185,51.5C 186.045,50.6266 186.878,49.6266 187.5,48.5 Z"/></g>
<g><path style="opacity:1" fill="#bcbdbd" d="M 151.5,58.5 C 156.439,57.3519 159.939,59.0186 162,63.5C 164.588,67.674 166.921,72.0074 169,76.5C 171.575,84.0881 169.075,86.9214 161.5,85C 156.158,78.6541 151.825,71.6541 148.5,64C 149.124,61.9149 150.124,60.0816 151.5,58.5 Z"/></g>
<g><path style="opacity:1" fill="#bbbcbc" d="M 222.5,58.5 C 229.163,57.3326 231.997,59.9992 231,66.5C 227.793,73.0863 223.959,79.253 219.5,85C 213.166,86.3286 210.332,83.8286 211,77.5C 214.342,70.8063 218.175,64.473 222.5,58.5 Z"/></g>
<g><path style="opacity:1" fill="#bcbdbd" d="M 127.5,83.5 C 133.861,85.5131 139.861,88.3465 145.5,92C 147,93.5 148.5,95 150,96.5C 151.324,103.505 148.49,106.005 141.5,104C 135.418,100.877 129.585,97.3773 124,93.5C 122.581,89.0823 123.748,85.7489 127.5,83.5 Z"/></g>
<g><path style="opacity:1" fill="#bcbdbd" d="M 247.5,84.5 C 255.575,83.0651 258.408,86.0651 256,93.5C 249.507,100.167 241.673,103.667 232.5,104C 229.793,102.136 228.959,99.6363 230,96.5C 235.465,91.8596 241.299,87.8596 247.5,84.5 Z"/></g>
<g><path style="opacity:1" fill="#bbbcbc" d="M 184.5,86.5 C 214.189,87.0203 228.689,102.02 228,131.5C 221.768,155.541 206.268,166.041 181.5,163C 164.592,158.091 154.759,146.924 152,129.5C 151.714,106.729 162.548,92.3961 184.5,86.5 Z"/></g>
<g><path style="opacity:1" fill="#bdbebe" d="M 119.5,118.5 C 126.175,118.334 132.842,118.5 139.5,119C 143.292,121.053 144.458,124.219 143,128.5C 142.167,129.333 141.333,130.167 140.5,131C 132.833,131.667 125.167,131.667 117.5,131C 111.777,125.784 112.444,121.617 119.5,118.5 Z"/></g>
<g><path style="opacity:1" fill="#bdbebe" d="M 242.5,118.5 C 249.175,118.334 255.842,118.5 262.5,119C 266.292,121.053 267.458,124.219 266,128.5C 265.167,129.333 264.333,130.167 263.5,131C 255.833,131.667 248.167,131.667 240.5,131C 234.788,125.733 235.455,121.566 242.5,118.5 Z"/></g>
<g><path style="opacity:1" fill="#bcbdbd" d="M 233.5,145.5 C 241.404,147.617 248.737,151.117 255.5,156C 259.244,162.908 257.244,166.242 249.5,166C 243.178,163.174 237.178,159.841 231.5,156C 228.602,151.766 229.269,148.266 233.5,145.5 Z"/></g>
<g><path style="opacity:1" fill="#bcbdbd" d="M 142.5,145.5 C 148.82,145.32 151.32,148.32 150,154.5C 143.331,160.919 135.498,164.752 126.5,166C 123.71,163.79 122.877,160.956 124,157.5C 129.976,153.102 136.143,149.102 142.5,145.5 Z"/></g>
<g><path style="opacity:1" fill="#bcbdbd" d="M 162.5,164.5 C 165.368,164.085 167.535,165.085 169,167.5C 169.652,170.594 169.318,173.594 168,176.5C 165.353,182.309 161.853,187.476 157.5,192C 150.44,193.271 147.94,190.438 150,183.5C 152.885,176.154 157.052,169.821 162.5,164.5 Z"/></g>
<g><path style="opacity:1" fill="#bcbdbd" d="M 214.5,164.5 C 216.655,164.372 218.655,164.872 220.5,166C 224.633,171.761 228.133,177.927 231,184.5C 232.283,191.713 229.45,194.046 222.5,191.5C 216.471,184.776 212.638,177.109 211,168.5C 211.69,166.65 212.856,165.316 214.5,164.5 Z"/></g>
<g><path style="opacity:1" fill="#9a9a9a" d="M 511.5,250.5 C 511.5,311.167 511.5,371.833 511.5,432.5C 508.731,451.706 500.397,468.039 486.5,481.5C 408.833,409.5 331.167,337.5 253.5,265.5C 256.938,263.241 260.271,260.741 263.5,258C 291.167,232.333 318.833,206.667 346.5,181C 351.51,177.493 356.843,174.493 362.5,172C 394.507,162.086 422.841,168.419 447.5,191C 468.703,211.039 490.036,230.872 511.5,250.5 Z"/></g>
<g><path style="opacity:1" fill="#bbbcbc" d="M 188.5,171.5 C 191.809,171.308 194.309,172.641 196,175.5C 196.863,183.564 196.53,191.564 195,199.5C 192.503,201.478 189.669,201.978 186.5,201C 185.874,200.25 185.374,199.416 185,198.5C 184.333,190.5 184.333,182.5 185,174.5C 186.145,173.364 187.312,172.364 188.5,171.5 Z"/></g>
<g><path style="opacity:1" fill="#7f8080" d="M 253.5,265.5 C 331.167,337.5 408.833,409.5 486.5,481.5C 473.468,495.184 457.468,503.35 438.5,506C 316.5,506.667 194.5,506.667 72.5,506C 40.7686,500.383 18.2686,482.883 5,453.5C 2.71061,447.165 0.877281,440.831 -0.5,434.5C -0.5,411.833 -0.5,389.167 -0.5,366.5C 43.2642,326.906 86.5975,286.74 129.5,246C 133.653,242.425 137.986,239.091 142.5,236C 173.402,221.223 202.736,223.89 230.5,244C 238.364,251.033 246.031,258.2 253.5,265.5 Z"/></g>
</svg>
